<svg width="66" height="38" viewBox="0 0 66 38" fill="none" xmlns="http://www.w3.org/2000/svg">
<path fill-rule="evenodd" clip-rule="evenodd" d="M52.2064 25.5988H53.5241C57.0729 16.6561 55.1641 21.9336 59.0091 12.3662V22.141C59.0091 23.623 59.0359 24.3508 56.8041 24.5593L56.2129 24.6112V25.5988C56.8309 25.5988 57.4495 25.5988 58.0681 25.5729C58.7135 25.547 59.3857 25.521 60.0306 25.521H62.1819C62.8273 25.521 63.4995 25.547 64.1449 25.5729C64.7629 25.5988 65.3815 25.5988 66.0001 25.5988V24.6112L65.4083 24.5593C63.1765 24.3508 63.2033 23.623 63.2033 22.141V11.6385C63.2033 10.1565 63.1765 9.42872 65.4083 9.22071L66.0001 9.16885V8.18066C64.0639 8.20659 62.9882 8.28495 62.0472 8.25846L59.1974 8.18066C57.5842 12.5742 56.3202 15.616 54.7606 19.3337L54.3036 20.4256L48.9264 8.18066L46.5599 8.25846C45.4842 8.28495 44.4091 8.23253 42.312 8.18066V9.16885L42.9032 9.22071C44.0593 9.32444 44.6779 9.53245 45.1082 10.2343V21.5694C45.1082 22.7132 45.135 24.2211 42.8764 24.5328L42.312 24.6112V25.5988C43.6833 25.5729 44.5706 25.521 45.2965 25.521H46.1838C46.9097 25.521 47.8507 25.5729 49.2488 25.5988V24.6112L48.6844 24.5328C46.4258 24.2211 46.4526 22.7132 46.4526 21.5694V12.2101L52.2064 25.5988Z" fill="#09AAEE"/>
<path fill-rule="evenodd" clip-rule="evenodd" d="M16.939 19.7694H15.7561C15.4063 22.031 13.8735 24.7346 10.6471 24.7346C8.49634 24.7346 4.78601 23.6426 4.78601 17.3516C4.78601 11.9439 7.34021 9.42243 10.2711 9.42243C11.7228 9.42243 13.2019 9.91624 14.358 11.502C14.8687 12.1779 15.218 12.9321 15.4331 13.816H16.6434L16.4015 8.27865H15.218L14.8151 9.78602C12.8521 8.35645 11.0237 8.14844 9.65247 8.14844C4.19424 8.14844 0 11.9439 0 17.2733C0 22.681 3.95229 26.1388 9.46415 26.1388C11.2389 26.1388 13.336 25.7487 15.218 24.1889L15.7561 25.6968H16.939L16.8854 22.6032L16.939 19.7694Z" fill="#09AAEE"/>
<path fill-rule="evenodd" clip-rule="evenodd" d="M30.3602 0.53125C29.2105 2.82612 29.8355 6.41528 33.0969 9.27049C36.4358 12.1933 41.209 16.7019 38.7924 20.0769C38.2922 20.7759 37.5687 20.9726 36.7851 20.9354C36.8492 21.29 36.9361 21.6507 36.9606 21.9416C38.4857 21.8993 40.2727 21.3379 41.6276 19.7505C44.8978 15.9212 42.9639 10.8066 40.1911 7.33865C37.3698 3.80924 34.5125 2.2083 34.3586 0.53125H30.3602Z" fill="#7ADBFF"/>
<path fill-rule="evenodd" clip-rule="evenodd" d="M22.2579 17.6133C20.9123 18.1342 19.5206 19.0603 18.8087 20.2582C16.4312 24.2589 17.5576 27.7319 21.1461 31.7805C23.1021 33.9874 25.8056 35.6025 26.4953 37.4695H30.6283C31.6538 34.6769 30.6674 31.5691 28.7656 29.1897C25.5613 25.1823 20.3077 22.2199 21.4854 19.8287C21.7682 19.2537 22.3028 18.916 22.9657 18.7103C22.7593 18.4278 22.4684 18.0045 22.2579 17.6133Z" fill="#7ADBFF"/>
<path fill-rule="evenodd" clip-rule="evenodd" d="M29.5612 4.80607C26.6479 4.70629 23.8476 5.4876 22.1522 8.66468C19.9146 12.857 22.0916 16.6119 24.8411 19.4874C27.8979 22.6859 33.0803 25.3162 30.6643 28.6911C30.3903 29.0739 30.0492 29.3062 29.6679 29.4319C29.9093 29.8034 30.1956 30.4099 30.4089 30.6771C31.5184 30.5131 32.6868 30.0672 33.7543 29.1664C37.8535 25.7068 37.218 20.7777 34.1758 17.2833C30.6631 13.2488 26.2549 10.8587 27.207 8.25994C27.7311 6.82923 28.7561 6.45549 30.2154 6.37939C29.96 6.09979 29.7239 5.32694 29.5612 4.80607Z" fill="#09AAEE"/>
</svg>
