<svg width="150" height="132" viewBox="0 0 150 132" fill="none" xmlns="http://www.w3.org/2000/svg">
<path d="M150 0H0V132H150V0Z" fill="white"/>
<path fill-rule="evenodd" clip-rule="evenodd" d="M104.365 37.9328H106.064C110.642 26.3969 108.18 33.2047 113.14 20.8631V33.4723C113.14 35.384 113.174 36.3228 110.295 36.5918L109.533 36.6587V37.9328C110.33 37.9328 111.128 37.9328 111.926 37.8993C112.758 37.8659 113.626 37.8324 114.457 37.8324H117.233C118.065 37.8324 118.932 37.8659 119.765 37.8993C120.562 37.9328 121.36 37.9328 122.158 37.9328V36.6587L121.395 36.5918C118.516 36.3228 118.55 35.384 118.55 33.4723V19.9243C118.55 18.0126 118.516 17.0738 121.395 16.8055L122.158 16.7386V15.4639C119.66 15.4973 118.273 15.5984 117.059 15.5642L113.383 15.4639C111.302 21.1314 109.671 25.0553 107.659 29.851L107.07 31.2595L100.133 15.4639L97.0807 15.5642C95.6931 15.5984 94.3063 15.5308 91.6011 15.4639V16.7386L92.3637 16.8055C93.855 16.9393 94.653 17.2076 95.208 18.113V32.7349C95.208 34.2104 95.2426 36.1555 92.3291 36.5577L91.6011 36.6587V37.9328C93.37 37.8993 94.5146 37.8324 95.451 37.8324H96.5956C97.5319 37.8324 98.7458 37.8993 100.549 37.9328V36.6587L99.8213 36.5577C96.9077 36.1555 96.9423 34.2104 96.9423 32.7349V20.6617L104.365 37.9328Z" fill="#09AAEE"/>
<path fill-rule="evenodd" clip-rule="evenodd" d="M58.8709 30.4155H57.3449C56.8936 33.3329 54.9164 36.8204 50.7544 36.8204C47.98 36.8204 43.1938 35.4118 43.1938 27.2966C43.1938 20.3209 46.4887 17.0682 50.2694 17.0682C52.142 17.0682 54.05 17.7052 55.5414 19.7508C56.2002 20.6226 56.6507 21.5956 56.9282 22.7358H58.4895L58.1774 15.5928H56.6507L56.131 17.5372C53.5988 15.6931 51.2403 15.4248 49.4714 15.4248C42.4305 15.4248 37.02 20.3209 37.02 27.1955C37.02 34.1713 42.1183 38.6318 49.2285 38.6318C51.5178 38.6318 54.223 38.1286 56.6507 36.1165L57.3449 38.0617H58.8709L58.8017 34.0709L58.8709 30.4155Z" fill="#09AAEE"/>
<path fill-rule="evenodd" clip-rule="evenodd" d="M76.1838 5.59766C74.7007 8.55797 75.5069 13.1879 79.714 16.871C84.0211 20.6414 90.1784 26.4573 87.061 30.8109C86.4158 31.7126 85.4824 31.9664 84.4716 31.9184C84.5544 32.3758 84.6664 32.8411 84.698 33.2164C86.6654 33.1618 88.9706 32.4376 90.7184 30.3899C94.9368 25.4502 92.4421 18.8525 88.8653 14.379C85.226 9.82616 81.54 7.76099 81.3415 5.59766H76.1838Z" fill="#7ADBFF"/>
<path fill-rule="evenodd" clip-rule="evenodd" d="M65.732 27.6328C63.9962 28.3047 62.201 29.4995 61.2827 31.0447C58.2158 36.2054 59.6688 40.6855 64.2978 45.9081C66.821 48.755 70.3084 50.8383 71.1981 53.2467H76.5296C77.8525 49.6443 76.58 45.6354 74.1267 42.566C69.9933 37.3965 63.2163 33.5753 64.7355 30.4906C65.1003 29.7489 65.7899 29.3133 66.645 29.0479C66.3788 28.6836 66.0035 28.1375 65.732 27.6328Z" fill="#7ADBFF"/>
<path fill-rule="evenodd" clip-rule="evenodd" d="M75.1531 11.1122C71.395 10.9835 67.7828 11.9913 65.5957 16.0897C62.7092 21.4976 65.5175 26.3413 69.0643 30.0506C73.0074 34.1766 79.6926 37.5696 76.576 41.9232C76.2226 42.4169 75.7826 42.7165 75.2907 42.8787C75.6021 43.3579 75.9714 44.1403 76.2466 44.485C77.6778 44.2734 79.185 43.6982 80.562 42.5362C85.8499 38.0735 85.0301 31.7151 81.1058 27.2074C76.5745 22.003 70.8881 18.9198 72.1162 15.5675C72.7923 13.722 74.1145 13.2399 75.9969 13.1417C75.6675 12.781 75.3629 11.7841 75.1531 11.1122Z" fill="#09AAEE"/>
<path fill-rule="evenodd" clip-rule="evenodd" d="M42.5734 64.5053L42.502 62.9383C41.9605 62.5899 41.3942 62.334 40.8 62.1624C40.2089 61.9915 39.5899 61.9071 38.9462 61.9071C37.3036 61.9071 35.9912 62.3878 35.0023 63.3506C34.0163 64.3162 33.5214 65.6033 33.5214 67.2184C33.5214 68.3521 33.7734 69.3628 34.2743 70.25C34.7751 71.1371 35.4843 71.8374 36.4079 72.3551C37.3322 72.8722 38.3054 73.131 39.332 73.131C40.1435 73.131 40.9497 73.0409 41.7454 72.8569C42.3395 72.7216 42.9367 72.4395 43.5406 72.009L43.7301 72.1864C43.603 72.454 43.4842 72.7282 43.3759 73.0045C42.6629 73.3448 41.9507 73.6001 41.2295 73.7746C40.5112 73.9462 39.7862 74.0334 39.0582 74.0334C37.5653 74.0334 36.253 73.7535 35.1203 73.1972C33.9885 72.638 33.1176 71.8679 32.5106 70.8841C31.9045 69.9009 31.5991 68.7913 31.5991 67.5522C31.5991 66.3131 31.9075 65.2034 32.5197 64.2261C33.1326 63.248 34.0005 62.4932 35.1203 61.9551C36.2432 61.417 37.621 61.1494 39.2545 61.1494C40.1096 61.1494 41.1144 61.2847 42.2621 61.5552C42.8314 61.6846 43.2977 61.7806 43.6557 61.8439C43.3849 62.4729 43.2292 63.36 43.1886 64.5053H42.5734Z" fill="#09AAEE"/>
<path fill-rule="evenodd" clip-rule="evenodd" d="M54.026 72.9951C54.6232 73.0249 55.2045 73.0402 55.7708 73.0402C56.9185 73.0402 57.8142 73.0097 58.461 72.9529C58.9123 72.9049 59.3793 72.8206 59.8606 72.697L60.4082 70.6224H60.9873C60.8346 71.7349 60.7165 72.7755 60.6323 73.7434C60.0848 73.8277 59.3387 73.867 58.3896 73.867L54.0478 73.7979C53.4627 73.7979 52.5542 73.8277 51.3201 73.8881V73.4191C51.8051 73.2147 52.0909 72.9951 52.1782 72.7602C52.2654 72.5261 52.309 71.5968 52.309 69.9723V65.1337C52.309 63.3739 52.2654 62.3937 52.1782 62.1923C52.0879 61.9908 51.842 61.8883 51.4351 61.8883H50.4424V61.3291C51.8886 61.3655 52.8468 61.3829 53.3228 61.3829C53.9538 61.3829 54.8097 61.3655 55.8919 61.3291V61.8883H54.7631C54.4427 61.8883 54.2374 61.9785 54.1531 62.1559C54.0696 62.3362 54.026 63.0794 54.026 64.3876V69.9934L54.0539 72.4774L54.026 72.9951Z" fill="#09AAEE"/>
<path fill-rule="evenodd" clip-rule="evenodd" d="M67.8267 73.2925H68.399C68.9623 73.2925 69.3015 73.1602 69.4135 72.8955C69.5256 72.6344 69.5813 71.3706 69.5813 69.1062V66.1263C69.5813 63.7833 69.5316 62.4897 69.4353 62.249C69.3383 62.009 69.0495 61.8883 68.5644 61.8883H67.8267V61.3291C68.8352 61.3655 69.8332 61.3829 70.8192 61.3829C71.6404 61.3829 72.3835 61.3655 73.0528 61.3291V61.8883H72.3496C71.9172 61.8883 71.6465 61.9392 71.5344 62.0388C71.4261 62.1377 71.3637 62.3908 71.3449 62.7936C71.314 63.4219 71.2982 64.5381 71.2982 66.1437V69.1782C71.2982 71.4586 71.3509 72.7123 71.4539 72.9435C71.5562 73.1755 71.8894 73.2925 72.4489 73.2925H73.0528V73.8517C72.306 73.8161 71.4915 73.7979 70.6078 73.7979C69.5813 73.7979 68.6547 73.8161 67.8267 73.8517V73.2925Z" fill="#09AAEE"/>
<path fill-rule="evenodd" clip-rule="evenodd" d="M82.449 63.2808V69.3825C82.449 70.7692 82.4768 71.7378 82.5302 72.2854C82.5731 72.7035 82.6453 72.9588 82.7445 73.0489C82.8468 73.142 83.1364 73.2082 83.6184 73.2474L84.2036 73.2925V73.8517C83.541 73.8161 82.9438 73.7979 82.4084 73.7979C82.0353 73.7979 81.1862 73.8161 79.8551 73.8517V73.2925H80.5079C80.9035 73.2925 81.1614 73.2387 81.2825 73.1333C81.4036 73.0278 81.4788 72.8206 81.5096 72.5108C81.5751 71.8644 81.6089 70.9888 81.6089 69.8821V65.5125C81.6089 64.6915 81.5999 63.8793 81.5811 63.0765C81.569 62.7362 81.5217 62.502 81.4412 62.3755C81.357 62.249 81.2389 62.1377 81.0802 62.0388C80.9215 61.9392 80.7011 61.8883 80.4146 61.8883H79.8521V61.3291C80.6229 61.3655 81.211 61.3829 81.6187 61.3829C82.0571 61.3829 82.5362 61.3655 83.0589 61.3291C83.6621 62.0388 84.2284 62.7304 84.7601 63.4008C85.2918 64.0749 85.8423 64.7512 86.4147 65.4311L89.5313 69.1302C90.6571 70.4566 91.4694 71.3772 91.9672 71.8942V66.2462C91.9672 63.8793 91.9236 62.5893 91.8364 62.3697C91.7461 62.1472 91.3979 62.009 90.782 61.9516L90.1006 61.8883V61.3291C91.0775 61.3655 91.8364 61.3829 92.3779 61.3829C92.9404 61.3829 93.6684 61.3655 94.5612 61.3291V61.8883H93.861C93.2984 61.8883 92.975 62.0686 92.8878 62.4329C92.8351 62.6729 92.8066 63.9607 92.8066 66.2884V70.258C92.8066 71.3263 92.857 72.601 92.9532 74.0866C92.132 73.9601 91.6529 73.8699 91.519 73.8161C91.3882 73.7586 91.261 73.6656 91.14 73.5332C90.4646 72.8082 89.7554 72.0054 89.0123 71.1241L82.449 63.2808Z" fill="#09AAEE"/>
<path fill-rule="evenodd" clip-rule="evenodd" d="M101.404 73.2925H101.977C102.539 73.2925 102.878 73.1602 102.99 72.8955C103.102 72.6344 103.158 71.3706 103.158 69.1062V66.1263C103.158 63.7833 103.108 62.4897 103.012 62.249C102.916 62.009 102.626 61.8883 102.141 61.8883H101.404V61.3291C102.412 61.3655 103.41 61.3829 104.396 61.3829C105.217 61.3829 105.961 61.3655 106.63 61.3291V61.8883H105.927C105.494 61.8883 105.223 61.9392 105.112 62.0388C105.003 62.1377 104.941 62.3908 104.922 62.7936C104.891 63.4219 104.875 64.5381 104.875 66.1437V69.1782C104.875 71.4586 104.929 72.7123 105.031 72.9435C105.134 73.1755 105.466 73.2925 106.026 73.2925H106.63V73.8517C105.883 73.8161 105.068 73.7979 104.185 73.7979C103.158 73.7979 102.232 73.8161 101.404 73.8517V73.2925Z" fill="#09AAEE"/>
<path fill-rule="evenodd" clip-rule="evenodd" d="M124.742 64.5053L124.671 62.9383C124.129 62.5899 123.564 62.334 122.969 62.1624C122.378 61.9915 121.759 61.9071 121.115 61.9071C119.473 61.9071 118.16 62.3878 117.171 63.3506C116.185 64.3162 115.691 65.6033 115.691 67.2184C115.691 68.3521 115.943 69.3628 116.443 70.25C116.944 71.1371 117.653 71.8374 118.577 72.3551C119.501 72.8722 120.474 73.131 121.501 73.131C122.313 73.131 123.118 73.0409 123.915 72.8569C124.509 72.7216 125.106 72.4395 125.709 72.009L125.899 72.1864C125.772 72.454 125.654 72.7282 125.545 73.0045C124.832 73.3448 124.12 73.6001 123.398 73.7746C122.68 73.9462 121.955 74.0334 121.227 74.0334C119.734 74.0334 118.422 73.7535 117.289 73.1972C116.157 72.638 115.286 71.8679 114.68 70.8841C114.073 69.9009 113.769 68.7913 113.769 67.5522C113.769 66.3131 114.076 65.2034 114.689 64.2261C115.302 63.248 116.169 62.4932 117.289 61.9551C118.412 61.417 119.79 61.1494 121.423 61.1494C122.278 61.1494 123.283 61.2847 124.431 61.5552C125 61.6846 125.467 61.7806 125.824 61.8439C125.554 62.4729 125.399 63.36 125.358 64.5053H124.742Z" fill="#09AAEE"/>
<path fill-rule="evenodd" clip-rule="evenodd" d="M11.3584 91.2753C11.3584 92.0999 11.5073 92.6889 11.8089 93.0437C12.1112 93.3986 12.5369 93.576 13.0844 93.576C13.8966 93.576 14.5276 93.1375 14.9789 92.262C15.5512 91.1465 15.837 89.8711 15.837 88.4306C15.837 87.5856 15.6851 86.9842 15.3767 86.6265C15.0691 86.268 14.6246 86.0876 14.0455 86.0876C13.5762 86.0876 13.1626 86.2381 12.8076 86.5421C12.4504 86.8424 12.1202 87.4438 11.8156 88.3433C11.511 89.2428 11.3584 90.2201 11.3584 91.2753ZM9.93994 91.4076C9.93994 89.5315 10.4408 88.0728 11.4388 87.0322C12.4406 85.9945 13.5386 85.4746 14.7389 85.4746C15.5324 85.4746 16.1513 85.7058 16.5928 86.1661C17.035 86.6264 17.2554 87.2875 17.2554 88.1506C17.2554 89.2363 17.0132 90.2769 16.5244 91.2665C16.0363 92.2591 15.4143 93.0052 14.6615 93.5011C13.9056 93.9978 13.1498 94.2443 12.394 94.2443C11.6261 94.2443 11.0222 94.0123 10.5897 93.5491C10.1573 93.0859 9.93994 92.3704 9.93994 91.4076Z" fill="#09AAEE"/>
<path fill-rule="evenodd" clip-rule="evenodd" d="M18.6678 87.1881L18.758 86.7728C19.4454 86.5351 19.9869 86.3067 20.3848 86.0871L20.5156 85.4857C20.7458 84.3848 20.8887 83.7594 20.9443 83.606C21.0413 83.3355 21.2436 83.0555 21.5542 82.7669C22.3131 82.0695 23.0005 81.5547 23.6134 81.2238C24.0053 81.0136 24.3693 80.9082 24.7085 80.9082C25.0318 80.9082 25.4395 80.9984 25.9306 81.1823C25.735 81.6092 25.5485 82.0964 25.368 82.6345L25.1657 82.716C24.9792 82.4636 24.7829 82.2891 24.5844 82.1895C24.3851 82.0935 24.1421 82.0455 23.8564 82.0455C23.3307 82.0455 22.9509 82.2164 22.7177 82.5567C22.4846 82.8963 22.1544 84.1296 21.7257 86.25H22.198C22.6989 86.25 23.2118 86.1955 23.7413 86.0871L23.8406 86.1838C23.6879 86.5867 23.5766 86.9023 23.5014 87.1335C23.0103 87.0921 22.565 87.071 22.1642 87.071L21.5482 87.0797L21.097 89.134C20.3502 92.5837 19.7718 94.8212 19.3612 95.8436C18.9536 96.866 18.3226 97.7051 17.4735 98.364C16.8666 98.8301 16.304 99.0613 15.7873 99.0613C15.5948 99.0613 15.3609 99.0162 15.0879 98.929C15.2398 98.529 15.3955 98.0331 15.5482 97.4405L15.7595 97.3954C16.0521 97.7473 16.3845 97.9247 16.7613 97.9247C17.0937 97.9247 17.3832 97.8077 17.6322 97.5728C18.0022 97.2179 18.3444 96.3395 18.6618 94.9324C19.0596 93.1545 19.5733 90.5505 20.1983 87.1219C19.747 87.1219 19.2371 87.143 18.6678 87.1881Z" fill="#09AAEE"/>
<path fill-rule="evenodd" clip-rule="evenodd" d="M39.8735 82.1431C39.6998 82.7532 39.6065 83.5626 39.5937 84.5697H38.959V83.8665C38.959 83.4091 38.8973 83.0994 38.7695 82.9336C38.6416 82.7714 38.3092 82.5969 37.7707 82.4107C37.233 82.2268 36.6667 82.1337 36.0725 82.1337C35.1023 82.1337 34.3367 82.3715 33.7832 82.847C33.2267 83.3219 32.9499 83.9327 32.9499 84.6781C32.9499 85.1471 33.065 85.5536 33.2921 85.8903C33.5192 86.2269 33.8268 86.4705 34.2126 86.6211C34.5985 86.7716 35.4167 86.9039 36.6667 87.0152C37.9174 87.1323 38.7635 87.2886 39.2049 87.4842C39.6434 87.6769 39.9984 87.9867 40.2623 88.4165C40.5271 88.8433 40.6572 89.3516 40.6572 89.9384C40.6572 91.1172 40.1473 92.1338 39.1275 92.9845C38.1069 93.8361 36.7479 94.26 35.0467 94.26C34.4646 94.26 33.8765 94.2026 33.2823 94.0884C32.6919 93.9742 32.0948 93.8063 31.4939 93.5801C31.5999 92.8762 31.6496 91.9716 31.6435 90.8678H32.2595V91.3099C32.2595 91.8785 32.2903 92.2297 32.3497 92.365C32.4114 92.501 32.5551 92.645 32.7792 92.7984C33.1146 93.0267 33.5132 93.2012 33.9727 93.322C34.4368 93.4419 34.9346 93.5023 35.4694 93.5023C36.617 93.5023 37.5067 93.2405 38.1317 92.717C38.7574 92.197 39.0711 91.5324 39.0711 90.7296C39.0711 90.2569 38.9658 89.8599 38.7507 89.5356C38.5393 89.2105 38.2408 88.9669 37.858 88.8077C37.4759 88.6513 36.7697 88.5306 35.7371 88.4463C34.3653 88.3416 33.432 88.1823 32.9401 87.9714C32.449 87.7605 32.0632 87.4268 31.7834 86.973C31.5037 86.5193 31.3638 85.9535 31.3638 85.2765C31.3638 84.1312 31.7925 83.1954 32.6483 82.4675C33.5064 81.7396 34.6917 81.376 36.2064 81.376C36.8163 81.376 37.4263 81.4392 38.0354 81.5658C38.6484 81.6916 39.2613 81.8843 39.8735 82.1431Z" fill="#09AAEE"/>
<path fill-rule="evenodd" clip-rule="evenodd" d="M52.4088 87.8814C52.7758 87.3433 53.3602 86.4016 54.1597 85.0636L56.2407 81.5565H57.6591V81.7761C56.919 82.5825 56.0135 83.794 54.9403 85.4156C53.8671 87.0364 53.2233 88.1221 53.012 88.6755C52.9375 88.8682 52.8999 89.3612 52.8999 90.1582C52.8999 91.2169 52.9278 92.059 52.9804 92.6786C53.018 93.0123 53.0804 93.2108 53.1707 93.2799C53.2579 93.3461 53.5715 93.4028 54.107 93.4508L54.8034 93.5206V94.0798C53.743 94.0435 52.9157 94.0253 52.3178 94.0253L49.3727 94.0798V93.5206H50.1503C50.67 93.5206 50.9806 93.4181 51.0837 93.2138C51.186 93.0087 51.2394 92.083 51.2394 90.4403C51.2394 89.9597 51.2266 89.4361 51.2018 88.8682C50.4181 87.4786 49.6931 86.278 49.0275 85.2621C48.3649 84.2484 47.8054 83.5053 47.3474 83.0392C47.0992 82.781 46.8811 82.6094 46.6946 82.528C46.5111 82.4465 46.1997 82.4051 45.7612 82.4051V81.8452C46.0102 81.8001 46.4983 81.707 47.23 81.5688L47.9483 81.4307C48.228 81.5296 48.4522 81.6561 48.6229 81.8095C48.9282 82.0858 49.3915 82.7148 50.0165 83.7009C50.4986 84.4586 51.295 85.8511 52.4088 87.8814Z" fill="#09AAEE"/>
<path fill-rule="evenodd" clip-rule="evenodd" d="M71.5659 82.1431C71.3922 82.7532 71.2982 83.5626 71.2861 84.5697H70.6514V83.8665C70.6514 83.4091 70.5897 83.0994 70.4619 82.9336C70.334 82.7714 70.0016 82.5969 69.4631 82.4107C68.9254 82.2268 68.359 82.1337 67.7649 82.1337C66.7947 82.1337 66.0291 82.3715 65.4756 82.847C64.919 83.3219 64.6423 83.9327 64.6423 84.6781C64.6423 85.1471 64.7574 85.5536 64.9845 85.8903C65.2116 86.2269 65.5192 86.4705 65.905 86.6211C66.2908 86.7716 67.1083 86.9039 68.359 87.0152C69.6097 87.1323 70.4558 87.2886 70.8973 87.4842C71.3358 87.6769 71.6907 87.9867 71.9547 88.4165C72.2195 88.8433 72.3496 89.3516 72.3496 89.9384C72.3496 91.1172 71.8397 92.1338 70.8198 92.9845C69.7993 93.8361 68.4403 94.26 66.7383 94.26C66.157 94.26 65.5688 94.2026 64.9747 94.0884C64.3836 93.9742 63.7864 93.8063 63.1863 93.5801C63.2923 92.8762 63.3419 91.9716 63.3359 90.8678H63.9519V91.3099C63.9519 91.8785 63.9827 92.2297 64.0421 92.365C64.1038 92.501 64.2474 92.645 64.4708 92.7984C64.807 93.0267 65.2048 93.2012 65.6651 93.322C66.1291 93.4419 66.6263 93.5023 67.1617 93.5023C68.3094 93.5023 69.1991 93.2405 69.8241 92.717C70.4491 92.197 70.7634 91.5324 70.7634 90.7296C70.7634 90.2569 70.6581 89.8599 70.443 89.5356C70.2317 89.2105 69.9331 88.9669 69.5503 88.8077C69.1675 88.6513 68.4613 88.5306 67.4295 88.4463C66.0577 88.3416 65.1244 88.1823 64.6325 87.9714C64.1414 87.7605 63.7556 87.4268 63.4758 86.973C63.196 86.5193 63.0562 85.9535 63.0562 85.2765C63.0562 84.1312 63.4848 83.1954 64.3407 82.4675C65.1988 81.7396 66.3841 81.376 67.8988 81.376C68.5087 81.376 69.1179 81.4392 69.7278 81.5658C70.3408 81.6916 70.953 81.8843 71.5659 82.1431Z" fill="#09AAEE"/>
<path fill-rule="evenodd" clip-rule="evenodd" d="M84.0205 82.3507C83.9551 83.232 83.9205 84.1585 83.9205 85.1329V90.1489C83.9205 92.017 83.9708 93.0423 84.0671 93.235C84.1634 93.4241 84.5086 93.5208 85.1057 93.5208H85.7871V94.08C84.7109 94.0436 83.7994 94.0254 83.0533 94.0254C82.3005 94.0254 81.395 94.0436 80.3376 94.08V93.5208H81.1024C81.504 93.5208 81.765 93.4692 81.8868 93.3674C82.0079 93.2648 82.0824 93.0634 82.1132 92.7624C82.1726 92.0766 82.2035 91.1895 82.2035 90.1038V85.0783C82.2035 84.0894 82.1824 83.1782 82.1418 82.3507H81.2145C79.7216 82.3507 78.9003 82.3842 78.7484 82.4532C78.5958 82.5194 78.4965 82.7841 78.4499 83.2444L78.322 84.4261H77.7436L77.7617 83.3789C77.7617 82.955 77.7248 82.3478 77.6504 81.5566C80.9317 81.593 82.86 81.6112 83.4354 81.6112L88.475 81.5566C88.3562 82.5492 88.2878 83.5055 88.2697 84.4261H87.6906L87.6004 83.2677C87.5635 82.8677 87.5131 82.6307 87.4447 82.558C87.38 82.486 87.2303 82.438 87.0002 82.4227C86.3346 82.3747 85.5788 82.3507 84.7297 82.3507H84.0205Z" fill="#09AAEE"/>
<path fill-rule="evenodd" clip-rule="evenodd" d="M97.6373 88.0889V90.2544L97.6471 91.4993C97.6471 92.2781 97.6561 92.8468 97.6749 93.2075C98.5646 93.2707 99.5168 93.3042 100.534 93.3042C101.215 93.3042 101.787 93.2736 102.251 93.2169C102.549 93.1806 102.867 93.1057 103.199 92.9879C103.352 92.4708 103.507 91.8244 103.666 91.0485H104.263C104.101 92.3385 104.02 93.1987 104.02 93.6292L104.039 94.0255C103.339 94.0743 102.651 94.0983 101.977 94.0983L100.546 94.0772C98.9625 94.0437 97.8028 94.0255 97.059 94.0255C96.3468 94.0255 95.4014 94.0437 94.2221 94.0801V93.5209H94.5057C95.0344 93.5209 95.3668 93.4692 95.5037 93.3704C95.6406 93.2707 95.7308 93.0366 95.7774 92.6665C95.8241 92.2992 95.8459 91.4848 95.8459 90.2246V85.3947C95.8459 84.6036 95.8278 83.9571 95.7872 83.4517C95.7466 82.9493 95.706 82.6489 95.6594 82.5522C95.6127 82.4562 95.5473 82.3806 95.4638 82.3268C95.3796 82.2759 95.1179 82.2272 94.6794 82.1857L93.98 82.1159V81.5567H94.966L95.9301 81.5836C96.4716 81.6018 96.8822 81.6113 97.162 81.6113L100.664 81.5662L102.325 81.5567C102.891 81.5509 103.461 81.5691 104.039 81.6113C103.803 82.3086 103.672 83.2169 103.647 84.336H103.05C103.05 83.6895 103.015 83.1507 102.951 82.7209C102.229 82.462 101.345 82.3326 100.297 82.3326C99.4634 82.3326 98.5895 82.369 97.6749 82.4381C97.6809 82.9914 97.6749 83.5419 97.6561 84.0953L97.6373 85.4515V87.241C98.2473 87.2774 98.7827 87.2948 99.249 87.2948C100.711 87.2948 101.538 87.2468 101.734 87.1479C101.927 87.0483 102.023 86.7451 102.023 86.2332V85.6529H102.621C102.577 86.5429 102.555 87.2534 102.555 87.7857C102.555 88.3449 102.577 89.0066 102.621 89.7672H102.023V89.256C102.023 88.6939 101.908 88.3507 101.678 88.2242C101.448 88.0984 100.636 88.0351 99.2393 88.0351C98.7263 88.0351 98.1916 88.0533 97.6373 88.0889Z" fill="#09AAEE"/>
<path fill-rule="evenodd" clip-rule="evenodd" d="M123.411 83.4575L120.699 88.904C119.682 90.9459 118.848 92.7325 118.195 94.2603H117.803C117.579 93.7404 116.942 92.4075 115.884 90.2572L112.643 83.7672V90.5219C112.643 92.0948 112.708 92.9878 112.839 93.2016C112.969 93.4154 113.377 93.5208 114.058 93.5208H114.397V94.08C113.551 94.0436 112.866 94.0255 112.338 94.0255C111.956 94.0255 111.19 94.0436 110.048 94.08V93.5208H110.642C111.044 93.5208 111.312 93.4633 111.446 93.3521C111.579 93.2408 111.66 93.0394 111.691 92.7478C111.765 91.9268 111.803 91.0426 111.803 90.0922V85.1147C111.803 83.912 111.775 83.1179 111.722 82.7325C111.697 82.531 111.607 82.3805 111.455 82.2758C111.299 82.1704 110.991 82.1158 110.53 82.1158H110.048V81.5566C111.104 81.593 111.765 81.6112 112.039 81.6112C112.384 81.6112 112.876 81.593 113.511 81.5566C114.245 83.1419 115.091 84.8864 116.048 86.7959L118.441 91.5749L120.665 87.1479C121.445 85.599 122.338 83.7374 123.34 81.5566C124.099 81.593 124.634 81.6112 124.942 81.6112C125.3 81.6112 125.946 81.593 126.882 81.5566V82.1158H126.289C125.753 82.1158 125.424 82.2067 125.306 82.3842C125.188 82.5645 125.128 83.2051 125.128 84.3148V90.7415C125.128 92.1733 125.191 92.9943 125.315 93.2045C125.439 93.4154 125.791 93.5208 126.363 93.5208H126.882V94.08C126.037 94.0436 125.231 94.0255 124.46 94.0255C123.608 94.0255 122.718 94.0436 121.788 94.08V93.5208H122.391C122.87 93.5208 123.159 93.4183 123.262 93.2168C123.362 93.0154 123.411 92.1464 123.411 90.6092V83.4575Z" fill="#09AAEE"/>
<path fill-rule="evenodd" clip-rule="evenodd" d="M44.7672 104.896L42.0552 110.342C41.0376 112.384 40.2043 114.171 39.5508 115.699H39.159C38.9356 115.179 38.2978 113.846 37.2397 111.696L33.999 105.206V111.96C33.999 113.533 34.0644 114.427 34.1945 114.64C34.3254 114.854 34.733 114.959 35.4136 114.959H35.7528V115.518C34.9067 115.482 34.2223 115.464 33.6944 115.464C33.3116 115.464 32.5459 115.482 31.4043 115.518V114.959H31.9984C32.4 114.959 32.6678 114.902 32.8017 114.791C32.9348 114.679 33.016 114.478 33.0468 114.186C33.1213 113.365 33.1589 112.481 33.1589 111.531V106.553C33.1589 105.35 33.1311 104.556 33.0777 104.171C33.0528 103.97 32.9626 103.819 32.8107 103.714C32.655 103.609 32.3474 103.554 31.8864 103.554H31.4043V102.995C32.4595 103.031 33.1213 103.05 33.395 103.05C33.7402 103.05 34.2321 103.031 34.8669 102.995C35.6009 104.58 36.447 106.325 37.4051 108.234L39.7967 113.013L42.0206 108.586C42.8013 107.037 43.694 105.176 44.6957 102.995C45.4546 103.031 45.9901 103.05 46.2977 103.05C46.6557 103.05 47.3024 103.031 48.2388 102.995V103.554H47.6446C47.1092 103.554 46.7798 103.645 46.6617 103.823C46.5436 104.003 46.4842 104.644 46.4842 105.753V112.18C46.4842 113.612 46.5466 114.433 46.6707 114.643C46.7955 114.854 47.1468 114.959 47.7191 114.959H48.2388V115.518C47.3927 115.482 46.5872 115.464 45.8156 115.464C44.9635 115.464 44.0738 115.482 43.1435 115.518V114.959H43.7474C44.2257 114.959 44.5152 114.857 44.6183 114.655C44.7176 114.454 44.7672 113.585 44.7672 112.048V104.896Z" fill="#09AAEE"/>
<path fill-rule="evenodd" clip-rule="evenodd" d="M52.7701 109.527V111.693L52.7799 112.938C52.7799 113.717 52.7889 114.285 52.8077 114.646C53.6975 114.709 54.6496 114.743 55.6664 114.743C56.3478 114.743 56.9201 114.712 57.3834 114.655C57.682 114.619 57.9993 114.544 58.3317 114.427C58.4844 113.909 58.6401 113.263 58.7988 112.487H59.3959C59.2342 113.777 59.153 114.637 59.153 115.067L59.1718 115.464C58.4716 115.512 57.785 115.537 57.1096 115.537L55.6792 115.516C54.0961 115.482 52.9356 115.464 52.1918 115.464C51.4796 115.464 50.5342 115.482 49.355 115.519V114.959H49.6385C50.1672 114.959 50.4996 114.908 50.6365 114.809C50.7734 114.709 50.8636 114.475 50.9103 114.105C50.9569 113.738 50.9787 112.923 50.9787 111.663V106.833C50.9787 106.042 50.9606 105.396 50.92 104.89C50.8794 104.388 50.8388 104.087 50.7922 103.991C50.7456 103.895 50.6801 103.819 50.5966 103.765C50.5124 103.714 50.2514 103.666 49.8122 103.624L49.1128 103.554V102.995H50.0988L51.0629 103.023C51.6044 103.04 52.0151 103.05 52.2948 103.05L55.7972 103.005L57.4578 102.995C58.0241 102.989 58.5935 103.008 59.1718 103.05C58.9357 103.747 58.8048 104.655 58.78 105.774H58.1828C58.1828 105.128 58.1482 104.589 58.0836 104.159C57.3616 103.901 56.4786 103.771 55.4302 103.771C54.5962 103.771 53.7223 103.807 52.8077 103.877C52.8138 104.43 52.8077 104.98 52.7889 105.534L52.7701 106.89V108.68C53.3801 108.715 53.9156 108.733 54.3818 108.733C55.8439 108.733 56.6712 108.685 56.8675 108.586C57.06 108.487 57.1563 108.184 57.1563 107.672V107.091H57.7534C57.7098 107.981 57.688 108.692 57.688 109.224C57.688 109.783 57.7098 110.445 57.7534 111.206H57.1563V110.694C57.1563 110.132 57.0412 109.789 56.811 109.663C56.5809 109.537 55.7687 109.474 54.3721 109.474C53.8591 109.474 53.3244 109.492 52.7701 109.527Z" fill="#09AAEE"/>
<path fill-rule="evenodd" clip-rule="evenodd" d="M64.0179 114.602C64.8391 114.719 65.5634 114.778 66.1884 114.778C67.8903 114.778 69.2125 114.354 70.1548 113.509C71.2904 112.484 71.859 110.986 71.859 109.019C71.859 107.305 71.3867 106 70.4406 105.1C69.4952 104.202 68.1114 103.753 66.2884 103.753C65.6506 103.753 64.8948 103.813 64.0179 103.937C63.9464 104.502 63.9088 105.143 63.9088 105.858V111.618C63.9088 112.68 63.9464 113.675 64.0179 114.602ZM62.0459 114.637C62.1422 113.729 62.1918 112.141 62.1918 109.871V107.32C62.1918 106.277 62.155 105.375 62.0828 104.62C62.0392 104.181 61.9835 103.925 61.9151 103.853C61.8436 103.784 61.5947 103.72 61.1652 103.66L60.438 103.555V102.995C61.439 103.032 62.1144 103.05 62.4626 103.05L64.9136 103.032L66.9104 102.995C67.7098 102.984 68.5341 103.059 69.3802 103.224C70.2233 103.389 70.9881 103.717 71.6755 104.213C72.3629 104.71 72.8856 105.332 73.2436 106.081C73.6008 106.827 73.7813 107.694 73.7813 108.67C73.7813 110.655 73.0909 112.294 71.7071 113.591C70.3263 114.887 68.519 115.537 66.2884 115.537L65.1685 115.51C64.0675 115.468 63.3711 115.447 63.0815 115.447C62.5867 115.447 61.9617 115.482 61.2028 115.555V115.122L62.0459 114.637Z" fill="#09AAEE"/>
<path fill-rule="evenodd" clip-rule="evenodd" d="M75.0322 114.959H75.6046C76.1679 114.959 76.5063 114.827 76.6184 114.562C76.7304 114.3 76.7868 113.037 76.7868 110.772V107.792C76.7868 105.449 76.7364 104.156 76.6402 103.916C76.5439 103.675 76.2544 103.554 75.7693 103.554H75.0322V102.995C76.04 103.031 77.0388 103.05 78.0247 103.05C78.8453 103.05 79.5891 103.031 80.2577 102.995V103.554H79.5552C79.1228 103.554 78.852 103.606 78.74 103.705C78.6309 103.804 78.5685 104.057 78.5504 104.46C78.5189 105.089 78.5038 106.204 78.5038 107.81V110.845C78.5038 113.125 78.5565 114.378 78.6587 114.61C78.7618 114.841 79.0942 114.959 79.6545 114.959H80.2577V115.518C79.5116 115.482 78.6963 115.464 77.8127 115.464C76.7868 115.464 75.8595 115.482 75.0322 115.518V114.959Z" fill="#09AAEE"/>
<path fill-rule="evenodd" clip-rule="evenodd" d="M92.4789 106.171L92.4075 104.604C91.866 104.255 91.3004 104 90.7063 103.828C90.1151 103.657 89.4962 103.572 88.8524 103.572C87.2099 103.572 85.8967 104.054 84.9078 105.016C83.9218 105.981 83.4277 107.268 83.4277 108.883C83.4277 110.017 83.6796 111.028 84.1798 111.915C84.6806 112.802 85.3898 113.503 86.3141 114.02C87.2377 114.538 88.2109 114.796 89.2375 114.796C90.0497 114.796 90.8552 114.706 91.6516 114.523C92.2458 114.387 92.8429 114.105 93.4461 113.675L93.6356 113.852C93.5085 114.12 93.3904 114.393 93.2814 114.67C92.5692 115.01 91.8569 115.265 91.135 115.44C90.4167 115.611 89.6917 115.698 88.9637 115.698C87.4708 115.698 86.1585 115.419 85.0266 114.862C83.894 114.303 83.0231 113.533 82.4169 112.55C81.81 111.566 81.5054 110.456 81.5054 109.217C81.5054 107.978 81.813 106.868 82.4259 105.891C83.0389 104.914 83.9067 104.159 85.0266 103.62C86.1487 103.082 87.5272 102.814 89.16 102.814C90.0151 102.814 91.0199 102.95 92.1676 103.22C92.7369 103.35 93.2039 103.446 93.5612 103.509C93.2904 104.138 93.1355 105.025 93.0949 106.171H92.4789Z" fill="#09AAEE"/>
<path fill-rule="evenodd" clip-rule="evenodd" d="M94.5503 114.959H95.1226C95.6859 114.959 96.0251 114.827 96.1372 114.562C96.2492 114.3 96.3049 113.037 96.3049 110.772V107.792C96.3049 105.449 96.2552 104.156 96.1582 103.916C96.062 103.675 95.7732 103.554 95.2873 103.554H94.5503V102.995C95.5581 103.031 96.5568 103.05 97.5428 103.05C98.3641 103.05 99.1071 103.031 99.7765 102.995V103.554H99.0733C98.6408 103.554 98.3701 103.606 98.258 103.705C98.149 103.804 98.0873 104.057 98.0685 104.46C98.0377 105.089 98.0219 106.204 98.0219 107.81V110.845C98.0219 113.125 98.0745 114.378 98.1776 114.61C98.2798 114.841 98.613 114.959 99.1726 114.959H99.7765V115.518C99.0297 115.482 98.2144 115.464 97.3315 115.464C96.3049 115.464 95.3776 115.482 94.5503 115.518V114.959Z" fill="#09AAEE"/>
<path fill-rule="evenodd" clip-rule="evenodd" d="M103.282 104.948V111.049C103.282 112.436 103.31 113.405 103.362 113.951C103.406 114.37 103.477 114.625 103.577 114.716C103.68 114.809 103.969 114.875 104.451 114.914L105.036 114.959V115.518C104.373 115.482 103.776 115.464 103.241 115.464C102.868 115.464 102.019 115.482 100.687 115.518V114.959H101.341C101.735 114.959 101.993 114.905 102.115 114.8C102.236 114.695 102.311 114.487 102.342 114.177C102.407 113.53 102.442 112.656 102.442 111.548V107.179C102.442 106.358 102.433 105.545 102.414 104.743C102.401 104.403 102.354 104.168 102.274 104.042C102.19 103.916 102.072 103.804 101.913 103.705C101.754 103.606 101.533 103.554 101.247 103.554H100.684V102.995C101.456 103.031 102.043 103.05 102.451 103.05C102.89 103.05 103.369 103.031 103.891 102.995C104.494 103.705 105.06 104.397 105.593 105.068C106.125 105.741 106.675 106.418 107.247 107.098L110.364 110.797C111.49 112.123 112.301 113.043 112.799 113.56V107.912C112.799 105.545 112.756 104.255 112.669 104.036C112.579 103.813 112.231 103.675 111.615 103.618L110.933 103.554V102.995C111.91 103.031 112.669 103.05 113.21 103.05C113.773 103.05 114.501 103.031 115.394 102.995V103.554H114.694C114.13 103.554 113.807 103.735 113.72 104.099C113.667 104.34 113.639 105.627 113.639 107.954V111.925C113.639 112.992 113.689 114.267 113.785 115.753C112.965 115.627 112.486 115.537 112.352 115.482C112.221 115.425 112.094 115.332 111.972 115.2C111.297 114.475 110.588 113.671 109.844 112.791L103.282 104.948Z" fill="#09AAEE"/>
<path fill-rule="evenodd" clip-rule="evenodd" d="M119.928 109.527V111.693L119.938 112.938C119.938 113.717 119.947 114.285 119.966 114.646C120.856 114.709 121.808 114.743 122.825 114.743C123.506 114.743 124.078 114.712 124.542 114.655C124.84 114.619 125.158 114.544 125.49 114.427C125.643 113.909 125.798 113.263 125.957 112.487H126.554C126.392 113.777 126.311 114.637 126.311 115.067L126.33 115.464C125.63 115.512 124.943 115.537 124.268 115.537L122.837 115.516C121.254 115.482 120.094 115.464 119.35 115.464C118.638 115.464 117.692 115.482 116.513 115.519V114.959H116.797C117.325 114.959 117.658 114.908 117.795 114.809C117.932 114.709 118.022 114.475 118.068 114.105C118.115 113.738 118.137 112.923 118.137 111.663V106.833C118.137 106.042 118.119 105.396 118.078 104.89C118.038 104.388 117.997 104.087 117.95 103.991C117.904 103.895 117.838 103.819 117.755 103.765C117.671 103.714 117.409 103.666 116.97 103.624L116.271 103.554V102.995H117.257L118.221 103.023C118.763 103.04 119.173 103.05 119.453 103.05L122.955 103.005L124.616 102.995C125.182 102.989 125.752 103.008 126.33 103.05C126.094 103.747 125.963 104.655 125.938 105.774H125.341C125.341 105.128 125.306 104.589 125.242 104.159C124.52 103.901 123.636 103.771 122.588 103.771C121.754 103.771 120.88 103.807 119.966 103.877C119.973 104.43 119.966 104.98 119.947 105.534L119.928 106.89V108.68C120.538 108.715 121.074 108.733 121.54 108.733C123.002 108.733 123.829 108.685 124.026 108.586C124.218 108.487 124.314 108.184 124.314 107.672V107.091H124.912C124.868 107.981 124.846 108.692 124.846 109.224C124.846 109.783 124.868 110.445 124.912 111.206H124.314V110.694C124.314 110.132 124.199 109.789 123.969 109.663C123.739 109.537 122.927 109.474 121.53 109.474C121.017 109.474 120.483 109.492 119.928 109.527Z" fill="#09AAEE"/>
<path fill-rule="evenodd" clip-rule="evenodd" d="M28.6606 53.3131H130.726V52.4092H28.6606V53.3131Z" fill="#7ADBFF"/>
<path fill-rule="evenodd" clip-rule="evenodd" d="M28.5562 125.921H130.622V125.018H28.5562V125.921Z" fill="#7ADBFF"/>
<path d="M150 0H0V132H150V0Z" stroke="#7ADBFF" stroke-width="2"/>
<path d="M147.289 2.60547H2.71094V129.395H147.289V2.60547Z" stroke="#D9E7F4"/>
</svg>
