<svg width="24" height="25" viewBox="0 0 24 25" fill="none" xmlns="http://www.w3.org/2000/svg">
<path fill-rule="evenodd" clip-rule="evenodd" d="M0 12.4707C0 5.84329 5.37258 0.470703 12 0.470703C18.6274 0.470703 24 5.84329 24 12.4707C24 19.0981 18.6274 24.4707 12 24.4707C5.37258 24.4707 0 19.0981 0 12.4707ZM11.9918 12.6634C13.7614 12.6634 15.1998 11.2747 15.1998 9.56749C15.1998 7.85976 13.7614 6.4707 11.9918 6.4707C10.2227 6.4707 8.78389 7.85976 8.78389 9.56749C8.78389 11.2747 10.2227 12.6634 11.9918 12.6634ZM15.1608 14.4462C14.5807 14.7979 13.951 15.0473 13.298 15.1909L15.0913 16.9221C15.4587 17.276 15.4587 17.8508 15.0913 18.205C14.7243 18.5593 14.1295 18.5593 13.7629 18.205L11.9997 16.5038L10.238 18.205C10.0543 18.382 9.81362 18.4705 9.57292 18.4705C9.33261 18.4705 9.09229 18.382 8.9086 18.205C8.54161 17.8508 8.54161 17.2764 8.90822 16.9221L10.7017 15.1909C10.0488 15.0473 9.41898 14.7975 8.83893 14.4462C8.39995 14.179 8.26809 13.6193 8.54468 13.1952C8.8205 12.7705 9.40056 12.6427 9.8403 12.9099C11.1536 13.7073 12.8454 13.7075 14.1594 12.9099C14.5992 12.6427 15.179 12.7705 15.4554 13.1952C15.732 13.6189 15.5998 14.179 15.1608 14.4462Z" fill="#535F7C"/>
<path d="M11.9918 8.28516C12.7243 8.28516 13.3201 8.86008 13.3201 9.56712C13.3201 10.2736 12.7243 10.8489 11.9918 10.8489C11.2599 10.8489 10.6636 10.2736 10.6636 9.56712C10.6636 8.86008 11.2599 8.28516 11.9918 8.28516Z" fill="#535F7C"/>
</svg>
