<svg width="20" height="21" viewBox="0 0 20 21" fill="none" xmlns="http://www.w3.org/2000/svg">
<path d="M3.75 10.5V3.625C3.75 3.45924 3.81585 3.30027 3.93306 3.18306C4.05027 3.06585 4.20924 3 4.375 3H11.875L16.25 7.375V10.5" stroke="#098DEE" stroke-linecap="round" stroke-linejoin="round"/>
<path d="M11.875 3V7.375H16.25" stroke="#098DEE" stroke-linecap="round" stroke-linejoin="round"/>
<path d="M3.75 16.125H5C5.33152 16.125 5.64946 15.9933 5.88388 15.7589C6.1183 15.5245 6.25 15.2065 6.25 14.875C6.25 14.5435 6.1183 14.2255 5.88388 13.9911C5.64946 13.7567 5.33152 13.625 5 13.625H3.75V17.375" stroke="#098DEE" stroke-linecap="round" stroke-linejoin="round"/>
<path d="M16.875 13.625H14.6875V17.375" stroke="#098DEE" stroke-linecap="round" stroke-linejoin="round"/>
<path d="M16.5625 15.8125H14.6875" stroke="#098DEE" stroke-linecap="round" stroke-linejoin="round"/>
<path d="M10 17.375C10.4973 17.375 10.9742 17.1775 11.3258 16.8258C11.6775 16.4742 11.875 15.9973 11.875 15.5C11.875 15.0027 11.6775 14.5258 11.3258 14.1742C10.9742 13.8225 10.4973 13.625 10 13.625H8.90625V17.375H10Z" stroke="#098DEE" stroke-linecap="round" stroke-linejoin="round"/>
</svg>
