<svg width="16" height="16" viewBox="0 0 16 16" fill="none" xmlns="http://www.w3.org/2000/svg">
<path d="M9.9624 2.5C10.8105 2.72761 11.5838 3.17428 12.2047 3.79519C12.8256 4.41611 13.2723 5.18941 13.4999 6.0375" stroke="#7ADBFF" stroke-linecap="round" stroke-linejoin="round"/>
<path d="M9.44385 4.43164C9.95392 4.56711 10.4191 4.83501 10.7923 5.20819C11.1655 5.58137 11.4334 6.04657 11.5688 6.55664" stroke="#7ADBFF" stroke-linecap="round" stroke-linejoin="round"/>
<path d="M5.78125 7.79953C6.29576 8.86204 7.15492 9.719 8.21875 10.2308C8.29722 10.2679 8.38402 10.284 8.47059 10.2774C8.55717 10.2709 8.64054 10.2419 8.7125 10.1933L10.275 9.14953C10.344 9.10271 10.4238 9.07414 10.5069 9.06649C10.5899 9.05884 10.6736 9.07236 10.75 9.10578L13.675 10.362C13.775 10.4036 13.8585 10.477 13.9127 10.5707C13.9669 10.6644 13.9888 10.7734 13.975 10.8808C13.8823 11.6044 13.5291 12.2694 12.9815 12.7514C12.4339 13.2334 11.7295 13.4994 11 13.4995C8.74566 13.4995 6.58365 12.604 4.98959 11.0099C3.39553 9.41588 2.5 7.25387 2.5 4.99953C2.50016 4.27003 2.76613 3.56558 3.24814 3.018C3.73015 2.47043 4.39516 2.11724 5.11875 2.02453C5.22615 2.01074 5.33511 2.03263 5.42884 2.08684C5.52258 2.14105 5.59589 2.22456 5.6375 2.32453L6.89375 5.25578C6.92642 5.331 6.94009 5.4131 6.93355 5.49484C6.92701 5.57659 6.90046 5.65547 6.85625 5.72453L5.8125 7.31203C5.76603 7.38383 5.73876 7.46636 5.73329 7.55171C5.72782 7.63706 5.74433 7.72239 5.78125 7.79953V7.79953Z" stroke="#7ADBFF" stroke-linecap="round" stroke-linejoin="round"/>
</svg>
