<svg width="24" height="25" viewBox="0 0 24 25" fill="none" xmlns="http://www.w3.org/2000/svg">
<path fill-rule="evenodd" clip-rule="evenodd" d="M0 12.4707C0 19.0981 5.37258 24.4707 12 24.4707C18.6274 24.4707 24 19.0981 24 12.4707C24 5.84329 18.6274 0.470703 12 0.470703C5.37258 0.470703 0 5.84329 0 12.4707ZM9.8 17.9707L10.0042 14.9118L10.004 14.9117L15.5685 9.8902C15.8127 9.67346 15.5151 9.56777 15.1909 9.76436L8.32364 14.0969L5.35734 13.171C4.71675 12.9749 4.71215 12.5347 5.50116 12.2182L17.0602 7.76113C17.5881 7.52145 18.0976 7.88793 17.8961 8.69595L15.9276 17.9723C15.7901 18.6314 15.3919 18.7891 14.84 18.4846L11.8414 16.2692L10.4 17.6707C10.3955 17.6751 10.3909 17.6795 10.3864 17.6839C10.2252 17.8409 10.0919 17.9707 9.8 17.9707Z" fill="#535F7C"/>
</svg>
