<svg width="24" height="25" viewBox="0 0 24 25" fill="none" xmlns="http://www.w3.org/2000/svg">
<path fill-rule="evenodd" clip-rule="evenodd" d="M12 0.470703C5.37258 0.470703 0 5.84329 0 12.4707C0 19.0981 5.37258 24.4707 12 24.4707C18.6274 24.4707 24 19.0981 24 12.4707C24 5.84329 18.6274 0.470703 12 0.470703ZM12.9771 16.2588C12.8587 16.3835 12.6277 16.4087 12.6277 16.4087H11.8627C11.8627 16.4087 10.1749 16.5083 8.68801 14.9892C7.06654 13.3318 5.63477 10.0435 5.63477 10.0435C5.63477 10.0435 5.55213 9.82777 5.64166 9.72392C5.74245 9.60654 6.01729 9.59917 6.01729 9.59917L7.84597 9.58749C7.84597 9.58749 8.01814 9.61515 8.14147 9.70425C8.24351 9.778 8.30048 9.91504 8.30048 9.91504C8.30048 9.91504 8.59598 10.6488 8.98726 11.3125C9.75166 12.6085 10.1073 12.8918 10.3664 12.7529C10.7446 12.5507 10.6313 10.921 10.6313 10.921C10.6313 10.921 10.6381 10.3298 10.4409 10.0662C10.2882 9.86219 10.0002 9.80258 9.87312 9.78599C9.76982 9.77247 9.93885 9.53772 10.158 9.43263C10.4873 9.2747 11.0682 9.26548 11.755 9.27224C12.2903 9.27777 12.4443 9.31034 12.6534 9.36012C13.1387 9.47507 13.1235 9.84347 13.0908 10.6385C13.0811 10.8763 13.0697 11.1523 13.0697 11.471C13.0697 11.5426 13.0676 11.619 13.0654 11.6975C13.0541 12.1049 13.0411 12.5713 13.3145 12.7449C13.4547 12.8334 13.7972 12.7578 14.6542 11.3297C15.0606 10.6525 15.3648 9.85666 15.3648 9.85666C15.3648 9.85666 15.4318 9.7147 15.5351 9.65386C15.6409 9.59179 15.7836 9.61085 15.7836 9.61085L17.7081 9.59917C17.7081 9.59917 18.2866 9.53096 18.3799 9.78783C18.4782 10.0564 18.1639 10.6844 17.3776 11.7131C16.6317 12.6892 16.2687 13.0486 16.302 13.3665C16.3264 13.5987 16.5623 13.8088 17.0151 14.221C17.9603 15.0824 18.2136 15.5356 18.2745 15.6445C18.2795 15.6536 18.2833 15.6602 18.286 15.6646C18.7098 16.3547 17.8158 16.4087 17.8158 16.4087L16.1061 16.4321C16.1061 16.4321 15.7392 16.5034 15.2559 16.1777C15.0027 16.0072 14.7553 15.7288 14.5197 15.4636C14.1598 15.0586 13.8274 14.6845 13.5436 14.7729C13.0672 14.9216 13.0816 15.9288 13.0816 15.9288C13.0816 15.9288 13.0854 16.1445 12.9771 16.2588Z" fill="#535F7C"/>
</svg>
